<svg width="22" height="22" viewBox="0 0 22 22" fill="none" xmlns="http://www.w3.org/2000/svg">
<path fill-rule="evenodd" clip-rule="evenodd" d="M17.2003 18.8624C12.4049 18.8624 8.51007 15.3403 8.51007 11.0072C8.51007 6.6548 12.3994 3.13358 17.2003 3.13358C18.0031 3.13358 18.7922 3.23419 19.5486 3.42844C17.5394 1.81816 14.9301 0.890959 12.1523 0.890959C5.98384 0.890959 0.985235 5.4194 0.985235 11.0072C0.985235 16.58 5.98801 21.109 12.1523 21.109C14.9272 21.109 17.5368 20.1798 19.547 18.5678C18.7913 18.7618 18.0025 18.8624 17.2003 18.8624ZM9.49466 11.0072C9.49466 14.848 12.9488 17.9714 17.2003 17.9714C18.6457 17.9714 20.0399 17.6029 21.2412 16.9195C21.703 16.6569 22.2245 17.1674 21.8979 17.5632C19.615 20.3306 16.0323 22 12.1523 22C5.44379 22 0 17.0717 0 11.0072C0 4.92767 5.43962 0 12.1523 0C16.0352 0 19.6169 1.66566 21.8979 4.43102C22.2242 4.8262 21.7037 5.33677 21.2415 5.07467C20.0393 4.39246 18.6451 4.02454 17.2003 4.02454C12.9436 4.02454 9.49466 7.14652 9.49466 11.0072Z" fill="#1A1919"/>
</svg>
